<svg width="49" height="48" fill="none" xmlns="http://www.w3.org/2000/svg"><g clip-path="url(#prefix__clip0)"><path d="M24.358.462C11.437.462.962 10.926.962 23.835s10.475 23.373 23.396 23.373c12.922 0 23.397-10.464 23.397-23.373S37.28.462 24.358.462zm9.622 33.135l-9.776 5.648v.002H24.2l-9.782-5.65V14.053l.01.006 9.768-5.636 6.27 3.495h.002v8.823l-3.05-1.75v-5.315L24.2 11.845l-6.733 3.89v16.2l6.733 3.89 6.734-3.877.032-6.658-9.567-5.545 3.073-1.615 9.533 5.553-.025 9.916v-.002zM26.044 23.2l2.356 1.353-7.001 3.983v-8.03l2.459 1.449v2.41l2.188-1.165h-.002z" fill="#516FFA"/></g><defs><clipPath id="prefix__clip0"><path fill="#fff" d="M.962.462h47.05v47.05H.962z"/></clipPath></defs></svg>