<svg xmlns="http://www.w3.org/2000/svg" viewBox="0 0 53.3 52.7"><defs><style>.cls-1{fill:#d32f2f;}</style></defs><title>bitsong-logo</title><g id="Layer_2" data-name="Layer 2"><g id="Livello_1" data-name="Livello 1"><path class="cls-1" d="M26.6,0a24.58,24.58,0,0,0-6,.7V33.5a1.22,1.22,0,0,1-1.2,1.2H17a.9.9,0,0,1-.9-.9V2.1A26.34,26.34,0,0,0,26.7,52.7,26.53,26.53,0,0,0,53.3,26.4,26.57,26.57,0,0,0,26.6,0Zm-.5,37.3A1.11,1.11,0,0,1,25,38.4H22.6a1.11,1.11,0,0,1-1.1-1.1V20.6a1.11,1.11,0,0,1,1.1-1.1H25a1.11,1.11,0,0,1,1.1,1.1Zm5.4,1.6A1.11,1.11,0,0,1,30.4,40H28a1.11,1.11,0,0,1-1.1-1.1V19A1.11,1.11,0,0,1,28,17.9h2.4A1.11,1.11,0,0,1,31.5,19Zm5.4-3A1.11,1.11,0,0,1,35.8,37H33.4a1.11,1.11,0,0,1-1.1-1.1V22.2a1.11,1.11,0,0,1,1.1-1.1h2.4a1.11,1.11,0,0,1,1.1,1.1Z"/></g></g></svg>