<svg width="48" height="48" viewBox="0 0 48 48" fill="none" xmlns="http://www.w3.org/2000/svg">
<circle cx="24" cy="24" r="24" fill="white"/>
<path d="M35.8031 28.857H19.0887V19.7824H16.5173V30.1077C16.5173 30.7945 17.0971 31.3586 17.803 31.3586H32.4501L29.4248 34.0075H13.1896V18.9976H16.4921H19.0635H29.9038C30.2316 18.9976 30.5341 18.8749 30.761 18.6787L36.6601 13.5283C37.0635 13.1849 37.1895 12.6208 37.0131 12.1548C36.8114 11.6643 36.3324 11.3455 35.8031 11.3455H17.803C17.0971 11.3455 16.5173 11.9096 16.5173 12.5963V15.7111H19.0887V13.8471H32.4501L29.4248 16.4959H19.0887H16.5173H11.9039C11.198 16.4959 10.6182 17.06 10.6182 17.7467V35.2584C10.6182 35.945 11.198 36.5091 11.9039 36.5091H29.9038C30.2316 36.5091 30.5341 36.3864 30.761 36.1903L36.6601 31.0399C37.0635 30.6964 37.1895 30.1324 37.0131 29.6663C36.8114 29.1758 36.3324 28.857 35.8031 28.857Z" fill="#FE4350"/>
</svg>
