<svg width="28" height="28" viewBox="0 0 28 28" fill="none" xmlns="http://www.w3.org/2000/svg">
<path d="M14 28C21.732 28 28 21.732 28 14C28 6.26801 21.732 0 14 0C6.26801 0 0 6.26801 0 14C0 21.732 6.26801 28 14 28Z" fill="#2E3148"/>
<path d="M14 22.1234C18.4865 22.1234 22.1235 18.4864 22.1235 14C22.1235 9.51351 18.4865 5.87653 14 5.87653C9.51358 5.87653 5.87659 9.51351 5.87659 14C5.87659 18.4864 9.51358 22.1234 14 22.1234Z" fill="#1B1E36"/>
<path d="M14.0288 1.78607C12.5176 1.78607 11.2922 7.26735 11.2922 14.0289C11.2922 20.7905 12.5176 26.2718 14.0288 26.2718C15.5401 26.2718 16.7655 20.7905 16.7655 14.0289C16.7655 7.26735 15.5401 1.78607 14.0288 1.78607ZM14.2178 25.5808C14.045 25.8113 13.8722 25.6384 13.8722 25.6384C13.1762 24.832 12.8282 23.3339 12.8282 23.3339C11.6109 19.4162 11.9006 11.0047 11.9006 11.0047C12.4727 4.32679 13.5134 2.74927 13.8676 2.39905C13.9037 2.3633 13.9513 2.34146 14.002 2.33736C14.0527 2.33327 14.1032 2.34718 14.1447 2.37665C14.6585 2.74076 15.0895 4.26351 15.0895 4.26351C16.3621 8.98779 16.2469 13.424 16.2469 13.424C16.3621 17.2841 15.6092 21.605 15.6092 21.605C15.0296 24.8889 14.2178 25.5808 14.2178 25.5808Z" fill="#6F7390"/>
<path d="M24.6481 7.93621C23.8957 6.62491 18.5319 8.2899 12.6641 11.6546C6.79632 15.0193 2.65724 18.8102 3.4091 20.1209C4.16096 21.4316 9.52532 19.7672 15.3931 16.4025C21.2609 13.0378 25.4 9.24694 24.6481 7.93621ZM4.10328 19.941C3.81521 19.9047 3.88028 19.668 3.88028 19.668C4.23364 18.6632 5.35813 17.6158 5.35813 17.6158C8.15175 14.6102 15.5926 10.6757 15.5926 10.6757C21.669 7.84862 23.5565 7.9679 24.0353 8.09973C24.0844 8.11344 24.1271 8.14411 24.1558 8.1863C24.1845 8.22849 24.1974 8.27947 24.1921 8.33022C24.1345 8.95742 23.0254 10.0886 23.0254 10.0886C19.5632 13.5448 15.6577 15.6529 15.6577 15.6529C12.3668 17.6745 8.24403 19.1707 8.24403 19.1707C5.10702 20.3011 4.10339 19.941 4.10339 19.941H4.10328Z" fill="#6F7390"/>
<path d="M24.6214 20.1645C25.3796 18.8567 21.251 15.0485 15.4039 11.6585C9.55671 8.2685 4.19363 6.58292 3.43607 7.89297C2.67851 9.20302 6.80646 13.009 12.657 16.399C18.5075 19.7889 23.8638 21.4746 24.6214 20.1645ZM3.9385 8.39831C3.8265 8.13276 4.06293 8.06881 4.06293 8.06881C5.10967 7.87113 6.58 8.32159 6.58 8.32159C10.5801 9.23248 17.7127 13.7003 17.7127 13.7003C23.2044 17.5431 24.0466 19.2358 24.1728 19.7163C24.1857 19.7655 24.1807 19.8178 24.1588 19.8637C24.1368 19.9097 24.0994 19.9464 24.053 19.9675C23.4803 20.2297 21.9466 19.839 21.9466 19.839C17.2195 18.5715 13.4389 16.2492 13.4389 16.2492C10.0421 14.4171 6.68326 11.5981 6.68326 11.5981C4.13102 9.4492 3.93928 8.40122 3.93928 8.40122L3.9385 8.39831Z" fill="#6F7390"/>
<path d="M14 15.4403C14.7955 15.4403 15.4403 14.7955 15.4403 14C15.4403 13.2045 14.7955 12.5597 14 12.5597C13.2045 12.5597 12.5597 13.2045 12.5597 14C12.5597 14.7955 13.2045 15.4403 14 15.4403Z" fill="#B7B9C8"/>
<path d="M19.9052 9.3333C20.3666 9.3333 20.7406 8.94639 20.7406 8.46911C20.7406 7.99183 20.3666 7.60492 19.9052 7.60492C19.4438 7.60492 19.0698 7.99183 19.0698 8.46911C19.0698 8.94639 19.4438 9.3333 19.9052 9.3333Z" fill="#B7B9C8"/>
<path d="M6.19332 12.2716C6.6547 12.2716 7.02873 11.8847 7.02873 11.4074C7.02873 10.9302 6.6547 10.5432 6.19332 10.5432C5.73193 10.5432 5.35791 10.9302 5.35791 11.4074C5.35791 11.8847 5.73193 12.2716 6.19332 12.2716Z" fill="#B7B9C8"/>
<path d="M12.3004 22.8724C12.7618 22.8724 13.1358 22.4855 13.1358 22.0082C13.1358 21.531 12.7618 21.144 12.3004 21.144C11.839 21.144 11.465 21.531 11.465 22.0082C11.465 22.4855 11.839 22.8724 12.3004 22.8724Z" fill="#B7B9C8"/>
</svg>
