<svg width="22" height="26" viewBox="0 0 22 26" fill="none" xmlns="http://www.w3.org/2000/svg">
<path fill-rule="evenodd" clip-rule="evenodd" d="M11.2407 1.43325C11.1295 1.33105 11.0722 1.32911 11.0627 1.32911C11.053 1.32911 10.9957 1.33105 10.8847 1.43325C10.7707 1.53814 10.6344 1.71914 10.4876 1.9984C10.1945 2.55582 9.91408 3.39835 9.67237 4.48551C9.40054 5.70805 9.18567 7.20234 9.05016 8.87509C9.7047 9.19178 10.3778 9.53608 11.0624 9.90578C11.7472 9.53602 12.4204 9.19166 13.0751 8.87492C12.9396 7.20225 12.7247 5.70801 12.4529 4.48551C12.2111 3.39835 11.9307 2.55582 11.6376 1.9984C11.4909 1.71914 11.3546 1.53814 11.2407 1.43325ZM10.4896 10.2196C9.98679 9.9524 9.49146 9.69966 9.00639 9.46223C8.96963 10.0007 8.94103 10.5558 8.92107 11.1246C9.17761 10.971 9.43789 10.8179 9.70166 10.6657C9.96544 10.5135 10.2283 10.3648 10.4896 10.2196ZM8.52213 8.62366C8.91489 4.03674 9.90428 0.782013 11.0627 0.782013C12.2209 0.782013 13.2102 4.03667 13.6031 8.62351C17.7742 6.67014 21.0892 5.8991 21.6684 6.90163C22.2475 7.90417 19.9219 10.3877 16.1435 13.0211C19.9219 15.6545 22.2475 18.138 21.6684 19.1406C21.0892 20.1431 17.7742 19.3721 13.6031 17.4187C13.2102 22.0055 12.2209 25.2601 11.0627 25.2601C9.90428 25.2601 8.91489 22.0054 8.52213 17.4185C4.35083 19.372 1.03571 20.1431 0.45651 19.1406C-0.122662 18.138 2.20303 15.6545 5.98139 13.0211C2.20303 10.3877 -0.122662 7.90417 0.45651 6.90163C1.03571 5.89907 4.35083 6.67017 8.52213 8.62366ZM6.4635 12.6896C5.08161 11.7359 3.89399 10.8028 2.97043 9.9562C2.14918 9.20338 1.55929 8.53936 1.22276 8.00701C1.05416 7.7403 0.965468 7.5319 0.931574 7.38086C0.898567 7.23378 0.925551 7.18342 0.930231 7.17531V7.1753C0.934958 7.16713 0.965223 7.1185 1.10937 7.07347C1.25734 7.02724 1.4824 6.9998 1.79786 7.01237C2.42752 7.03746 3.29795 7.216 4.36095 7.55036C5.55632 7.92636 6.95865 8.4876 8.47596 9.20668C8.42316 9.93142 8.38499 10.686 8.36303 11.4633C7.70024 11.8711 7.06528 12.2815 6.4635 12.6896ZM6.4635 13.3526C5.08161 14.3062 3.89399 15.2394 2.97043 16.086C2.14918 16.8388 1.55929 17.5028 1.22276 18.0352C1.05416 18.3018 0.965468 18.5103 0.931574 18.6613C0.898567 18.8084 0.925551 18.8588 0.930231 18.8669C0.934935 18.875 0.965176 18.9237 1.10937 18.9688C1.25734 19.015 1.4824 19.0424 1.79786 19.0298C2.42752 19.0047 3.29795 18.8262 4.36095 18.4919C5.55632 18.1158 6.95865 17.5546 8.47596 16.8356C8.42316 16.1108 8.38499 15.3562 8.36303 14.5789C7.70024 14.1711 7.06528 13.7607 6.4635 13.3526ZM8.34852 13.9262C7.86551 13.6246 7.39873 13.3222 6.95037 13.0211C7.39873 12.72 7.86551 12.4176 8.34852 12.116C8.34366 12.4149 8.34119 12.7167 8.34119 13.0211C8.34119 13.3255 8.34366 13.6274 8.34852 13.9262ZM8.9024 14.2674C8.89306 13.8579 8.88828 13.4422 8.88828 13.0211C8.88828 12.6001 8.89306 12.1842 8.9024 11.7748C9.25254 11.562 9.61039 11.3501 9.97512 11.1395C10.3401 10.929 10.7028 10.7252 11.0624 10.5285C11.422 10.7252 11.7848 10.929 12.1497 11.1395C12.5147 11.3501 12.8727 11.5622 13.2228 11.775C13.2322 12.1844 13.2369 12.6001 13.2369 13.0211C13.2369 13.4421 13.2322 13.8578 13.2228 14.2671C12.8727 14.48 12.5147 14.6921 12.1497 14.9026C11.7848 15.1132 11.422 15.317 11.0624 15.5138C10.7028 15.317 10.3401 15.1132 9.97512 14.9026C9.61039 14.6921 9.25254 14.4801 8.9024 14.2674ZM8.92107 14.9176C8.94103 15.4863 8.96963 16.0414 9.00639 16.58C9.49146 16.3426 9.98679 16.0898 10.4896 15.8226C10.2283 15.6774 9.96544 15.5287 9.70166 15.3765C9.43789 15.2243 9.17761 15.0712 8.92107 14.9176ZM11.0624 16.1364C10.3778 16.5061 9.7047 16.8504 9.05016 17.1671C9.18567 18.8399 9.40054 20.3342 9.67237 21.5567C9.91408 22.6439 10.1945 23.4864 10.4876 24.0439C10.6344 24.323 10.7707 24.5041 10.8847 24.609C10.9957 24.7111 11.053 24.7131 11.0627 24.7131C11.0722 24.7131 11.1295 24.7111 11.2407 24.609C11.3546 24.5041 11.4909 24.323 11.6376 24.0439C11.9307 23.4864 12.2111 22.6439 12.4529 21.5567C12.7247 20.3342 12.9396 18.8399 13.0751 17.1673C12.4204 16.8505 11.7472 16.5062 11.0624 16.1364ZM13.6493 16.8357C15.1665 17.5546 16.5687 18.1159 17.764 18.4919C18.827 18.8262 19.6973 19.0047 20.327 19.0298C20.6425 19.0424 20.8675 19.015 21.0155 18.9688C21.1598 18.9237 21.19 18.875 21.1947 18.8669C21.1993 18.8588 21.2263 18.8085 21.1933 18.6613C21.1594 18.5103 21.0707 18.3018 20.9022 18.0352C20.5656 17.5028 19.9757 16.8388 19.1545 16.086C18.2309 15.2394 17.0432 14.3062 15.6613 13.3526C15.0597 13.7606 14.4249 14.171 13.7622 14.5786C13.7402 15.3561 13.7021 16.1109 13.6493 16.8357ZM15.6613 12.6896C17.0432 11.7359 18.2309 10.8028 19.1545 9.9562C19.9757 9.20338 20.5656 8.53936 20.9022 8.00701C21.0707 7.7403 21.1594 7.5319 21.1933 7.38086C21.2263 7.23373 21.1993 7.18339 21.1947 7.1753C21.19 7.16717 21.1598 7.11852 21.0155 7.07347C20.8675 7.02724 20.6425 6.9998 20.327 7.01237C19.6973 7.03746 18.827 7.216 17.764 7.55036C16.5687 7.92634 15.1665 8.48752 13.6493 9.20652C13.7021 9.93138 13.7402 10.6861 13.7622 11.4635C14.4249 11.8712 15.0597 12.2816 15.6613 12.6896ZM13.7768 12.1162C14.2596 12.4177 14.7262 12.7201 15.1745 13.0211C14.7262 13.3221 14.2596 13.6245 13.7768 13.926C13.7815 13.6272 13.784 13.3255 13.784 13.0211C13.784 12.7167 13.7815 12.415 13.7768 12.1162ZM13.2041 11.1248C13.1843 10.5559 13.1556 10.0007 13.1188 9.46206C12.6336 9.69955 12.1382 9.95234 11.6353 10.2196C11.8967 10.3648 12.1594 10.5135 12.4232 10.6657C12.6871 10.818 12.9475 10.9711 13.2041 11.1248ZM13.1188 16.5802C12.6336 16.3427 12.1382 16.0899 11.6353 15.8226C11.8967 15.6774 12.1594 15.5287 12.4232 15.3765C12.6871 15.2242 12.9475 15.0711 13.2041 14.9174C13.1843 15.4863 13.1556 16.0415 13.1188 16.5802Z" fill="black"/>
</svg>
