<svg viewBox="0 0 174 200" fill="none" xmlns="http://www.w3.org/2000/svg"><path fill-rule="evenodd" clip-rule="evenodd" d="M87 6.928L6.397 53.464v93.072L87 193.072l80.603-46.536V53.464L87 6.928zM173.603 50L87 0 .397 50v100L87 200l86.603-50V50z" fill="#BA3FD9"/><path fill-rule="evenodd" clip-rule="evenodd" d="M86.966 64.135c-6.19 0-11.226-5.04-11.226-11.234 0-6.195 5.035-11.234 11.226-11.234 6.19 0 11.226 5.04 11.226 11.234 0 6.195-5.036 11.234-11.226 11.234zm0-16.347a5.117 5.117 0 00-5.11 5.113 5.117 5.117 0 005.11 5.113 5.117 5.117 0 005.11-5.113 5.117 5.117 0 00-5.11-5.113z" fill="#BA3FD9"/><path d="M84.073 65.993c.964.223 1.969.34 3 .34 1.03 0 2.035-.117 3-.34v21.014a13.331 13.331 0 00-3-.34c-1.031 0-2.036.117-3 .34V65.993zM77.327 90.91L59.122 80.398c-.29.946-.69 1.875-1.206 2.768a13.32 13.32 0 01-1.794 2.428l18.199 10.507a13.34 13.34 0 013.006-5.193zm-3.007 12.988l-18.198 10.508c.675.724 1.28 1.535 1.795 2.428.515.893.916 1.821 1.205 2.768l18.205-10.511a13.336 13.336 0 01-3.006-5.193zm9.753 9.095v21.014c.965-.223 1.969-.34 3-.34s2.036.117 3 .34v-21.014c-.965.223-1.97.34-3 .34-1.031 0-2.036-.117-3-.34zm12.745-3.902l18.206 10.511a13.352 13.352 0 013-5.197l-18.199-10.507a13.336 13.336 0 01-3.007 5.193zm3.007-12.989l18.199-10.507a13.35 13.35 0 01-3-5.196l-18.206 10.51a13.34 13.34 0 013.007 5.193z" fill="#BA3FD9"/><path fill-rule="evenodd" clip-rule="evenodd" d="M55.96 82.16c-3.096 5.362-9.978 7.203-15.343 4.105-5.364-3.097-7.211-9.978-4.116-15.338 3.095-5.362 9.978-7.203 15.342-4.106 5.365 3.097 7.211 9.979 4.116 15.34zm-14.158-8.173a5.117 5.117 0 001.873 6.981 5.117 5.117 0 006.983-1.868 5.117 5.117 0 00-1.873-6.982 5.117 5.117 0 00-6.983 1.869zm14.264 44.039c3.096 5.361 1.25 12.241-4.116 15.339-5.364 3.097-12.246 1.256-15.342-4.105-3.095-5.361-1.248-12.242 4.116-15.34 5.365-3.097 12.247-1.255 15.343 4.106zm-14.157 8.173a5.118 5.118 0 006.983 1.869 5.118 5.118 0 001.873-6.982 5.118 5.118 0 00-6.982-1.869 5.118 5.118 0 00-1.873 6.982zm45.271 9.666c6.19 0 11.226 5.04 11.226 11.234 0 6.195-5.035 11.234-11.226 11.234-6.19 0-11.226-5.039-11.226-11.234 0-6.194 5.036-11.234 11.226-11.234zm0 16.347a5.116 5.116 0 005.11-5.113 5.117 5.117 0 00-5.11-5.113 5.117 5.117 0 00-5.11 5.113 5.117 5.117 0 005.11 5.113zm31.007-34.372c3.095-5.361 9.977-7.203 15.342-4.105 5.364 3.097 7.211 9.978 4.116 15.339-3.095 5.361-9.978 7.202-15.342 4.105-5.365-3.097-7.211-9.978-4.116-15.339zm14.157 8.173a5.116 5.116 0 00-1.874-6.981 5.116 5.116 0 00-6.982 1.868 5.117 5.117 0 001.873 6.982 5.117 5.117 0 006.983-1.869zm-14.265-44.038c-3.095-5.361-1.249-12.242 4.116-15.34 5.365-3.097 12.247-1.256 15.342 4.105 3.095 5.361 1.249 12.243-4.115 15.34-5.365 3.097-12.248 1.255-15.343-4.105zm14.157-8.174a5.116 5.116 0 00-6.982-1.868 5.117 5.117 0 00-1.874 6.981 5.118 5.118 0 006.983 1.869 5.117 5.117 0 001.873-6.982zM86.965 94.788a5.117 5.117 0 00-5.109 5.113 5.117 5.117 0 005.11 5.113 5.117 5.117 0 005.11-5.113 5.117 5.117 0 00-5.11-5.113zm0 16.347c-6.19 0-11.225-5.039-11.225-11.234s5.035-11.234 11.225-11.234c6.19 0 11.227 5.04 11.227 11.234 0 6.195-5.036 11.234-11.227 11.234z" fill="#BA3FD9"/></svg>