<svg width="48" height="48" viewBox="0 0 48 48" fill="none" xmlns="http://www.w3.org/2000/svg">
<path d="M0 24C0 10.7452 10.7452 0 24 0C37.2548 0 48 10.7452 48 24C48 37.2548 37.2548 48 24 48C10.7452 48 0 37.2548 0 24Z" fill="url(#paint0_linear_1801_2612)"/>
<path fill-rule="evenodd" clip-rule="evenodd" d="M24.1056 5.7688C27.2858 5.76687 30.4131 6.58342 33.1859 8.13983C35.9589 9.69624 38.2842 11.94 39.9376 14.6551C38.6587 14.6369 37.389 14.873 36.2023 15.3495C35.0155 15.826 33.9353 16.5335 33.0245 17.4309C32.1137 18.3283 31.3905 19.3977 30.8968 20.5769C30.4032 21.7561 30.149 23.0217 30.149 24.3C30.149 25.5782 30.4032 26.8437 30.8968 28.0229C31.3905 29.2022 32.1137 30.2715 33.0245 31.1689C33.9353 32.0663 35.0155 32.7739 36.2023 33.2504C37.389 33.727 38.6587 33.963 39.9376 33.9448C38.2534 36.7068 35.8754 38.9803 33.0396 40.5391C30.2039 42.0979 27.0093 42.8877 23.7735 42.8302C20.5377 42.7726 17.3732 41.8695 14.5948 40.2108C11.8164 38.5521 9.52072 36.1956 7.93603 33.3753C6.35133 30.5551 5.53279 27.3694 5.56178 24.1349C5.59076 20.9006 6.46626 17.73 8.10125 14.9386C9.73623 12.1472 12.0737 9.83208 14.8814 8.22337C17.6892 6.61468 20.8692 5.76845 24.1056 5.7688Z" fill="#FFC780"/>
<path fill-rule="evenodd" clip-rule="evenodd" d="M39.9375 14.6492C38.6588 14.631 37.389 14.867 36.2022 15.3436C35.0155 15.8201 33.9352 16.5276 33.0244 17.425C32.1136 18.3225 31.3904 19.3918 30.8968 20.571C30.4031 21.7503 30.1489 23.0158 30.1489 24.294C30.1489 25.5723 30.4031 26.8379 30.8968 28.0171C31.3904 29.1963 32.1136 30.2656 33.0244 31.163C33.9352 32.0605 35.0155 32.7679 36.2022 33.2445C37.389 33.721 38.6588 33.957 39.9375 33.9388L39.8808 34.0328C37.9962 35.7407 35.6557 36.8643 33.1438 37.2668C30.632 37.6694 28.0572 37.3336 25.733 36.3001C23.4087 35.2666 21.4351 33.5802 20.0523 31.4461C18.6696 29.312 17.9374 26.8221 17.9449 24.2796C17.9523 21.7371 18.6991 19.2517 20.0943 17.1257C21.4895 14.9997 23.473 13.3248 25.8033 12.305C28.1336 11.2852 30.7103 10.9644 33.2197 11.3817C35.7292 11.7989 38.0631 12.9362 39.9375 14.6551V14.6492Z" fill="url(#paint1_linear_1801_2612)"/>
<defs>
<linearGradient id="paint0_linear_1801_2612" x1="24" y1="0" x2="24" y2="48" gradientUnits="userSpaceOnUse">
<stop stop-color="#1D100B"/>
<stop offset="1" stop-color="#513662"/>
</linearGradient>
<linearGradient id="paint1_linear_1801_2612" x1="28.9369" y1="37.4328" x2="28.9369" y2="11.1965" gradientUnits="userSpaceOnUse">
<stop stop-color="#FFC780"/>
<stop offset="1" stop-color="#964B48"/>
</linearGradient>
</defs>
</svg>
