<svg width="48" height="48" fill="none" xmlns="http://www.w3.org/2000/svg"><circle cx="24" cy="24" r="24" fill="#fff"/><path d="M24.241 6L9 14.845v17.61L24.241 41.3l15.242-8.845v-17.61L24.24 6zm10.74 23.85l-10.74 6.159-10.74-6.16V17.451l10.74-6.239 10.74 6.239v12.398z" fill="#002D74"/><path d="M24.241 11.212V6L9 14.845v17.61L24.241 41.3V36.01l-10.74-6.16V17.451l10.74-6.239z" fill="url(#prefix__paint0_linear)"/><path d="M24.241 36.009v5.212l15.242-8.845V14.845L24.24 6v5.212l10.74 6.16V29.77l-10.74 6.239z" fill="url(#prefix__paint1_linear)"/><path d="M31.428 27.717l-7.186 4.107-7.108-4.107v-8.213l7.108-4.106 7.186 4.106v8.213z" fill="#002D74"/><defs><linearGradient id="prefix__paint0_linear" x1="16.621" y1="41.254" x2="16.621" y2="6" gradientUnits="userSpaceOnUse"><stop stop-color="#002D74" stop-opacity="0"/><stop offset="1" stop-color="#002D74"/></linearGradient><linearGradient id="prefix__paint1_linear" x1="31.863" y1="41.221" x2="31.863" y2="6" gradientUnits="userSpaceOnUse"><stop stop-color="#002D74"/><stop offset="1" stop-color="#002D74" stop-opacity="0"/></linearGradient></defs></svg>