<svg xmlns="http://www.w3.org/2000/svg" width="342.079" height="356.623" viewBox="0 0 342.079 356.623"><g transform="translate(-288.634 -140.281)"><path d="M476.939,495.583c-8.79-6.94-19.617-6.267-21.434-6.324-14.8-.462-15.4,4.895-14.188,7.4.3.619-7.472-.167-7.4,0-4.386-1.2-12.265-5.385-3.994-11,3.776-2.566,15.93-4.667,26.046-3.027,9.139,1.787,19.032,3.482,20.973,12.952" fill="#0b4c6c"/><path d="M551.622,189.422c-115.628-39.334-203.178,1.027-203.178,1.027l-14.15,13.983s82.633-47.655,215.809-9.239Z" fill="#0b4c6c"/><path d="M579.281,182.026c-36.791-16.488-81.141-24.444-107.5-26.246-53.759-3.677-91.225,11.027-91.225,11.027l-19.123,11.718s41.1-22.99,109.951-17.97c25.981,1.894,68.569,12.381,106.511,26.727Z" fill="#0b4c6c"/><path d="M596.2,255.411c-48.3-22.358-112.359-32-153.286-31.849-109.278.422-143.369,38.03-143.369,38.03l-4.522,15.217s32.487-45.235,153.809-43.046c28.117.506,85.856,4.046,145.535,28.607Z" fill="#0b4c6c"/><path d="M606.766,295.049C553.582,264.74,478.476,258.7,441.56,257.661c-115.124-3.261-151.094,40.08-151.094,40.08l-1.749,21.487c1.515-7.531,25.14-53.488,155.993-49.412,30.723.96,96.738,2.883,159.761,33.943Z" fill="#0b4c6c"/><path d="M288.648,320.091l.07-.863a2.643,2.643,0,0,0-.07.863" fill="#0b4c6c"/><path d="M557.885,350.677c-37-12.569-77.365-17.306-105.222-18.994-191.773-4.7-150.443,62.736-150.443,62.736s-12.956-49.756,145.368-51.4c7.264-.077,58.339,2.318,107.923,16.682Z" fill="#0b4c6c"/><path d="M554.566,312.95c-40.47-13.6-85.038-19.457-111.773-20.13-119.808-.8-145.511,33.745-152.911,45.159-2.674,6.684.924,19.431.924,19.431s5.862-51.815,155.137-52.432c7.416-.031,56.828,3.442,106.183,17.245Z" fill="#0b4c6c"/><path d="M547.575,386.561c-31.381-12.236-68.115-18.293-92.435-20.122-52.375-2.86-98.955,6.665-118.994,16.058-39.313,18.415-16.038,42.764-16.038,42.764s-15.337-47.28,130.454-47.541c6.506-.011,53.259,3.527,94.685,17.683Z" fill="#0b4c6c"/><path d="M503.411,418.273l2.051-7.8a323.745,323.745,0,0,0-48.754-8.98c-45.279-3.449-85.194,5.671-102.593,14.178-38.121,18.637-9.951,41.048-9.951,41.048S322.985,410.869,452.9,412.448a273.374,273.374,0,0,1,50.553,5.845Z" fill="#0b4c6c"/><path d="M514.685,447.77c-17.657-7.119-38.758-11.356-55.17-13.563-35.96-3.86-72.139,1.94-85.813,9.556-29.953,16.681.379,36.4.379,36.4s-27.758-40.713,77.909-37.927c4.4.119,33.42-.059,61.237,11.075Z" fill="#0b4c6c"/><path d="M480.733,466.24a184.027,184.027,0,0,0-23.995-4.737c-23.529-2.527-48.154,1.483-57.1,6.466-19.6,10.916-2.426,23.3,7.752,25.3-.771-1.543-22.259-26.347,46.88-24.521a101.288,101.288,0,0,1,25.078,2.761Z" fill="#0b4c6c"/><path d="M556.191,210.34C516.6,198.783,478.53,195.646,449.042,194.7,366.451,192.062,319.7,222.938,319.7,222.938l-9.048,14.392s35.366-34.131,137.763-34.643c30.258-.154,65.548,3.79,105.845,13.939Z" fill="#0b4c6c"/><path d="M583.656,189.507q2.945,1.161,5.83,2.349l1.3-4.218c-1.98-1.04-3.978-2.066-6.02-3.051Z" fill="#0b4c6c"/><path d="M578.721,217.824q-3.318-1.245-6.631-2.4l-1.405,5.612c2.217.632,4.46,1.3,6.706,1.964Z" fill="#0b4c6c"/><path d="M615.584,265.64q-5.553-3.345-11.541-6.408l-1.494,6.635q5.938,2.631,11.876,5.566Z" fill="#0b4c6c"/><path d="M630.713,311.837q-3.62-3.135-7.5-6.044l-1.62,7.2c2.649,1.562,5.286,3.2,7.911,4.872Z" fill="#0b4c6c"/><path d="M579.528,322.661q-5.039-2.27-10.265-4.348l-1.917,8.52q5.349,1.749,10.611,3.69Z" fill="#0b4c6c"/><path d="M600.477,370.356q-6.227-3.9-12.925-7.309l-1.687,6.823c4.276,1.8,8.506,4.178,12.568,6.215Z" fill="#0b4c6c"/><path d="M569.609,396.821q-3.669-2.049-7.548-3.947l-1.858,8.251q3.45,1.479,6.769,3.083Z" fill="#0b4c6c"/><path d="M530.531,418.4c-3.271-1.233-6.619-2.4-10.017-3.508l-1.631,7.256q4.626,1.342,9.261,2.943Z" fill="#0b4c6c"/><path d="M536.059,459.51a70.339,70.339,0,0,0-9.18-6l-1.268,5.629a94.314,94.314,0,0,1,8.655,5.394Z" fill="#0b4c6c"/><path d="M500.226,473.979a63.35,63.35,0,0,0-7.762-3.784l-1.164,5.186a79.681,79.681,0,0,1,7.215,3.392Z" fill="#0b4c6c"/><path d="M561.376,163.753c-50.671-28.006-101.711-26.335-132.361-18.49l-1.917,2.323c29.957-6.255,81.2-6.8,133.585,17.335Z" fill="#0b4c6c"/><path d="M569.428,196.059c-3.26-1.313-6.5-2.586-9.725-3.773l-1.22,5.425q4.683,1.457,9.447,3.057Z" fill="#0b4c6c"/></g></svg>