<svg xmlns="http://www.w3.org/2000/svg" viewBox="0 0 256 256"><style>.prefix__st1{fill:#28646e}</style><g id="prefix__Layer_1"><linearGradient id="prefix__SVGID_1_" gradientUnits="userSpaceOnUse" x1="0" y1="128" x2="256" y2="128"><stop offset="0" stop-color="#d2f0f0"/><stop offset="1" stop-color="#f0e6b4"/></linearGradient><circle cx="128" cy="128" r="128" fill="url(#prefix__SVGID_1_)"/><path class="prefix__st1" d="M128 248C61.8 248 8 194.2 8 128S61.8 8 128 8s120 53.8 120 120-53.8 120-120 120zm0-229.8C67.4 18.2 18.2 67.4 18.2 128S67.4 237.8 128 237.8 237.8 188.6 237.8 128 188.6 18.2 128 18.2z"/><path class="prefix__st1" d="M120.1 106.1c-.9 0-1.9-.4-2.6-1.2-1.2-1.4-1.1-3.6.3-4.8 9.6-8.5 13.9-15.5 14.7-16.8 2.8-4.9 7.4-7.5 12.2-6.8 1.9.3 3.2 2 2.9 3.8-.3 1.9-2 3.2-3.8 2.9-2.8-.4-4.7 2.3-5.3 3.5-.9 1.5-5.6 9.3-16.1 18.5-.7.6-1.5.9-2.3.9zM62.6 163.9c-1 0-1.9-.4-2.6-1.2-1.2-1.4-1-3.6.4-4.8 3.4-2.8 10.2-7.2 12.6-8.4 1.7-.8 3.7-.2 4.6 1.5.8 1.7.2 3.7-1.5 4.6-1.8.9-8.2 5-11.2 7.5-.7.6-1.5.8-2.3.8z"/><path class="prefix__st1" d="M148.4 131.5c1.4 1.3 2.9.7 4.4-.7 9.9-9.5 20.4-24.2 23.8-31.9.7-1.6 2.3-2.6 3.9-1.9 1.9.8 1.9 4 .2 7.6-4.6 9.4-10.9 19.8-23.4 32.7-1.2 1.2-1 2.9.1 3.9s2.9.9 4.6-.8c6.5-6.6 10.9-11.8 14.6-17.1 1-1.4 2.1-1.9 3.3-1.7 1.6.3 1.9 1.9 1.4 3.8-.8 3.1-9.5 14.4-12.9 18.2-9.3 10.3-18.6 16-36.4 25.3-6.2 3.2-10.9 6.3-13.7 11.1-2.6 4.3-3.3 5.8-3.6 6.3-1 2.1-.2 4.8 1.9 5.8.6.3 1.2.4 1.8.4 1.6 0 3.2-1 3.9-2.6 0-.1-.1.1 3.2-5.6 1.6-2.7 5.1-6.8 10.5-9.3 17.9-8.1 25.2-14.6 35.5-24.9 4.7-4.7 11.3-14.9 13-17.9 5-8.4 2.4-15.6-2.1-16.8-.4-.1-.6-.5-.4-.8 3.5-6 5.1-10.1 5.7-13.3.9-4.3-.3-9.6-6.3-10.9-.3-.1-.5-.4-.4-.7.4-1.4.7-3.1 1-4.3 1.3-5.6-2.3-10.8-6.6-11.7-3-.6-5.7 0-8 1.7-.3.2-.8.2-1-.1-.9-1-2.4-2-4.5-2.1-3.7-.1-7.4 1.1-10.1 6.8-1.9 4.1-4.8 9.6-13.2 18.9-7.8 8.6-18.6 17.1-25.3 21.5-1.2.8-2.8.6-2.6-1 .3-2.5 3-19.3 3.5-24.3.7-8.1-3.6-11.7-8.4-12.4-4-.5-10.1.6-13.4 9.7-1.9 5.3-6 14.1-9.5 28.2-2.4 9.9-2.8 21.5-.6 34.8.1.8 0 1.6-.4 2.3-2.7 4.4-6.5 10.1-8.7 15.1-.9 2-.1 4.4 1.8 5.5.6.4 1.3.5 2 .5 1.6 0 3.1-.9 3.8-2.4 1.3-2.7 3.9-7.8 5-9.9 1.8-3.7 3-6.1 3.5-7.7.4-1.4.7-3-.1-6.7-1.4-6.2-1.8-17.8.7-28.1 3.4-13.6 9-28.8 10.1-31.4s2.5-3.3 3.9-3.2c1.4.1 4.2.8 3.4 6-1.4 9.2-3.4 20.9-4.1 24.8-.3 1.9-.7 6.4 2.9 8.5 2.8 1.6 5.8.7 9.2-1.5 7.6-5.1 20.7-15.4 28.9-24.6 8.6-9.7 11.4-15.5 13.6-20.7 1-2.4 3.6-2.4 4.5-2.1s2 1.5 1.2 4.1c-1.9 6.4-9.8 21-25 34.7-1.7 1.6-1.5 3.4-.6 4.3.8.9 2.4 1.5 4.2 0 13.7-11.6 21.4-25.6 24.9-33 1.7-3.7 2.4-5.9 3-7.6.7-2.2 2.4-2.9 3.6-2.7 1.7.4 2.8 2.1 2.2 4.9-.5 2.4-1.9 6.4-3.7 10.4-4.4 9.3-13.6 21.7-23.6 32.4-1.1 1.3-1.4 3-.1 4.2zM86.7 85.3c.5-.5.3-1.1.2-1.5-.7-2.3-4.9-12.2-6-14.1-.6-1-1.3-1.1-2-.8-1 .4-2.2 1.3-4.1 2.9-1.9 1.6-2.9 2.7-3.4 3.7-.4.7-.3 1.4.6 2.1 1.8 1.3 11 6.8 13.2 7.8.4.1 1 .4 1.5-.1zM66.7 88.6c-1.1 0-1.6.5-1.8 1.3-.2 1 0 2.6.4 5s.8 3.9 1.3 4.8c.4.7 1 1 2.1.6 2.1-.8 11.5-5.9 13.5-7.2.4-.3.9-.6.8-1.3M162.4 172.1c-.7 0-.9.6-1.1 1.1-.8 2.3-3.5 12.6-3.8 14.9-.2 1.1.3 1.7 1.1 1.9 1 .3 2.5.3 5 .2 2.5-.2 4-.4 4.9-.8.7-.3 1.1-.9.8-2-.6-2.2-4.6-12.1-5.8-14.2-.1-.6-.4-1.1-1.1-1.1zM168.4 167.3c-.3.6.1 1.1.4 1.5 1.5 1.9 9 9.5 10.7 11 .9.7 1.6.6 2.2.1.8-.7 1.6-2 2.7-4.2s1.7-3.6 1.9-4.7c.1-.8-.2-1.4-1.3-1.7-2.2-.6-12.7-2.3-15.2-2.5-.5 0-1.1-.1-1.4.5z"/><circle class="prefix__st1" cx="128" cy="224.8" r="3.8"/><circle class="prefix__st1" cx="128" cy="31.2" r="3.8"/><circle class="prefix__st1" cx="153" cy="221.5" r="3.8"/><circle class="prefix__st1" cx="103" cy="34.5" r="3.8"/><circle class="prefix__st1" cx="176.4" cy="211.8" r="3.8"/><circle class="prefix__st1" cx="79.6" cy="44.2" r="3.8"/><g><circle class="prefix__st1" cx="196.4" cy="196.4" r="3.8"/><circle class="prefix__st1" cx="59.6" cy="59.6" r="3.8"/></g><g><circle class="prefix__st1" cx="211.8" cy="176.4" r="3.8"/><circle class="prefix__st1" cx="44.2" cy="79.6" r="3.8"/></g><g><circle class="prefix__st1" cx="221.5" cy="153" r="3.8"/><circle class="prefix__st1" cx="34.5" cy="103" r="3.8"/></g><g><circle class="prefix__st1" cx="224.8" cy="128" r="3.8"/><circle class="prefix__st1" cx="31.2" cy="128" r="3.8"/></g><g><circle class="prefix__st1" cx="221.5" cy="103" r="3.8"/><circle class="prefix__st1" cx="34.5" cy="153" r="3.8"/></g><g><circle class="prefix__st1" cx="211.8" cy="79.6" r="3.8"/><circle class="prefix__st1" cx="44.2" cy="176.4" r="3.8"/></g><g><circle class="prefix__st1" cx="196.4" cy="59.6" r="3.8"/><circle class="prefix__st1" cx="59.6" cy="196.4" r="3.8"/></g><g><circle class="prefix__st1" cx="176.4" cy="44.2" r="3.8"/><circle class="prefix__st1" cx="79.6" cy="211.8" r="3.8"/></g><g><circle class="prefix__st1" cx="153" cy="34.5" r="3.8"/><circle class="prefix__st1" cx="103" cy="221.5" r="3.8"/></g></g></svg>