<svg width="28" height="28" viewBox="0 0 28 28" fill="none" xmlns="http://www.w3.org/2000/svg">
<g clip-path="url(#clip0_606_152)">
<path d="M23.9015 4.1055C18.4415 -1.3685 9.5655 -1.3685 4.1055 4.1055C-1.3685 9.5795 -1.3685 18.4415 4.1055 23.9015C9.5795 29.3755 18.4415 29.3755 23.9015 23.9015C29.3755 18.4415 29.3755 9.5655 23.9015 4.1055ZM22.6975 22.6975C17.8955 27.4995 10.0975 27.4995 5.2955 22.6975C0.4935 17.8955 0.4935 10.0975 5.2955 5.2955C10.0975 0.4935 17.8955 0.4935 22.6975 5.2955C27.5135 10.1115 27.5135 17.8955 22.6975 22.6975Z" fill="white"/>
<path d="M22.6976 5.30951C17.8956 0.507508 10.0976 0.507508 5.29559 5.30951C0.493592 10.1115 0.493592 17.9095 5.29559 22.7115C10.0976 27.5135 17.8956 27.5135 22.6976 22.7115C27.5136 17.8955 27.5136 10.1115 22.6976 5.30951ZM8.82359 23.9015C7.95559 23.4395 7.15759 22.8515 6.45759 22.1795V5.84151C7.18559 5.14151 8.01159 4.55351 8.90759 4.07751L19.1836 19.7295V4.10551C20.0516 4.56751 20.8496 5.15551 21.5496 5.82751V22.1655C20.8216 22.8655 19.9956 23.4535 19.0996 23.9295L8.82359 8.27751V23.9015Z" fill="#141521"/>
<path d="M21.5635 22.1655V5.84148C20.8495 5.16948 20.0515 4.58148 19.1975 4.11948V19.7295L8.89348 4.06348C7.99748 4.53948 7.17148 5.12748 6.44348 5.82748V22.1655C7.15748 22.8375 7.95548 23.4255 8.80948 23.8875V8.27748L19.1135 23.9435C20.0095 23.4675 20.8355 22.8655 21.5635 22.1655Z" fill="white"/>
</g>
<defs>
<clipPath id="clip0_606_152">
<rect width="28" height="28" fill="white"/>
</clipPath>
</defs>
</svg>
