<svg width="28" height="28" viewBox="0 0 28 28" fill="none" xmlns="http://www.w3.org/2000/svg">
<circle cx="14" cy="14" r="14" fill="#1D1141"/>
<path d="M22.5356 8.31753C22.3541 7.6307 21.771 6.94388 20.7213 6.1793C19.879 5.57023 18.9848 5.22034 18.2721 5.22034C18.1295 5.22034 17.9999 5.2333 17.8703 5.25921C17.5464 5.32401 17.2613 5.55727 17.0798 5.90716C16.8595 6.32185 16.8077 6.87908 16.9503 7.21602C17.0021 7.31969 17.0669 7.44928 17.1446 7.56591C16.4578 7.9806 16.069 8.09723 16.0172 8.11019C17.8055 8.7063 19.2958 9.95036 20.2289 11.5702L20.2418 11.4147C20.2807 10.9871 20.4103 10.4946 20.5917 9.98923C20.7732 10.0411 20.9546 10.067 21.136 10.067C21.6155 10.067 22.0302 9.87261 22.2894 9.52271C22.5485 9.17282 22.6522 8.7063 22.5356 8.31753Z" fill="#5E12A0"/>
<path d="M20.6695 9.61339C21.8488 9.93736 22.3283 9.03024 22.1728 8.42116C22.0043 7.81209 21.46 7.19006 20.5011 6.49028C19.5421 5.79049 18.5702 5.5054 17.9482 5.63499C17.3261 5.76458 17.1447 6.71058 17.3002 7.07343C17.365 7.21598 17.5076 7.42332 17.7019 7.65658C17.4557 7.82505 17.2225 7.95464 17.0281 8.07127C18.2203 8.60259 19.257 9.43196 20.0346 10.4687C20.1253 10.1188 20.2549 9.80777 20.3715 9.53563C20.4622 9.54859 20.5659 9.57451 20.6695 9.61339Z" fill="url(#paint0_radial)"/>
<path d="M13.9179 22.3132C17.9187 22.3132 21.1619 19.0699 21.1619 15.0691C21.1619 11.0683 17.9187 7.82507 13.9179 7.82507C9.9171 7.82507 6.67383 11.0683 6.67383 15.0691C6.67383 19.0699 9.9171 22.3132 13.9179 22.3132Z" fill="url(#paint1_radial)"/>
<path opacity="0.6" d="M21.5766 7.82516C20.5918 6.78844 19.7624 6.5163 18.7645 6.296C17.987 6.11457 18.1943 5.67397 19.1404 5.76468C18.6868 5.60917 18.2591 5.5703 17.9481 5.63509C17.3261 5.76468 17.1447 6.71068 17.3002 7.07354C17.365 7.21608 17.5075 7.42343 17.7019 7.65669C17.352 7.88995 17.054 8.05842 16.8077 8.18801C16.9244 8.23984 17.0669 8.30464 17.2354 8.39535C17.676 8.62861 18.1555 9.01738 18.1555 9.01738C17.4298 8.39535 17.5853 8.11025 18.5831 7.41047C18.8941 7.19017 19.4643 7.21608 19.9956 7.48822C20.527 7.76036 21.149 8.44719 21.149 8.44719L20.5529 9.58757C20.5918 9.60053 20.6306 9.61349 20.6695 9.62645C21.0453 9.73012 21.3434 9.70421 21.5766 9.61349C21.8488 9.44503 22.5615 8.87483 21.5766 7.82516Z" fill="#A98698"/>
<path d="M18.7517 6.91796C19.0108 7.02163 19.3478 7.20306 19.7625 7.4752C20.2549 7.79917 20.6825 8.16202 20.9547 8.44712C20.5011 9.04323 20.2031 9.85965 20.0216 10.4298C20.1123 10.5594 20.216 10.689 20.3067 10.8186C20.3974 10.4946 20.5529 10.0152 20.7603 9.53567C20.8121 9.54863 20.8769 9.54863 20.9417 9.54863C21.0972 9.54863 21.2787 9.52271 21.4212 9.40608C21.5249 9.32833 21.6415 9.18578 21.6285 8.9266C21.6285 8.68038 21.4342 8.36937 21.0324 7.99356C20.7473 7.72142 20.3586 7.42336 19.9698 7.15122C18.8553 6.41256 18.0778 6.20522 17.7279 6.55511C17.4946 6.78837 17.5206 7.07347 17.5983 7.28081C17.1836 7.55295 16.8337 7.74734 16.6005 7.87693C16.756 7.92876 16.8985 7.99356 17.054 8.05835C17.4687 7.83805 18.0648 7.46224 18.7517 6.91796ZM21.2009 8.7711C21.2398 8.83589 21.2527 8.90069 21.2527 8.93956C21.2527 9.05619 21.2139 9.09507 21.1879 9.12099C21.1361 9.15986 21.0324 9.18578 20.9417 9.18578C21.0195 9.03027 21.1102 8.90068 21.2009 8.7711ZM18 6.84021C18.0389 6.80133 18.1426 6.77541 18.311 6.80133C18.1815 6.905 18.0519 6.99572 17.9223 7.08643C17.9093 6.99572 17.9223 6.905 18 6.84021Z" fill="#5E12A0"/>
<path d="M13.918 7.39746C9.68046 7.39746 6.24634 10.8316 6.24634 15.0692C6.24634 19.3067 9.68046 22.7409 13.918 22.7409C18.1556 22.7409 21.5897 19.3067 21.5897 15.0692C21.5897 10.8316 18.1427 7.39746 13.918 7.39746ZM13.918 22.3132C9.91372 22.3132 6.67398 19.0735 6.67398 15.0692C6.67398 11.0648 9.91372 7.82511 13.918 7.82511C17.9224 7.82511 21.1621 11.0648 21.1621 15.0692C21.1621 19.0735 17.9094 22.3132 13.918 22.3132Z" fill="#5E12A0"/>
<path opacity="0.6" d="M13.9179 22.3132C17.9187 22.3132 21.1619 19.0699 21.1619 15.0691C21.1619 11.0683 17.9187 7.82507 13.9179 7.82507C9.9171 7.82507 6.67383 11.0683 6.67383 15.0691C6.67383 19.0699 9.9171 22.3132 13.9179 22.3132Z" fill="url(#paint2_linear)"/>
<path opacity="0.6" d="M13.8661 21.4318C9.91358 20.7969 7.23108 17.0776 7.87903 13.1251C8.16412 11.3757 9.04533 9.88541 10.2894 8.80981C8.47514 9.85949 7.12741 11.6867 6.76456 13.9156C6.12957 17.8681 8.81207 21.5874 12.7516 22.2223C14.9546 22.5852 17.0799 21.8984 18.6479 20.5506C17.2613 21.3541 15.5767 21.704 13.8661 21.4318Z" fill="#A98698"/>
<path opacity="0.6" d="M15.0714 7.9286C13.2442 7.63054 11.4688 8.04523 10.0174 8.96532C9.99149 8.99123 9.96557 9.01715 9.96557 9.01715C10.5228 8.68022 11.3392 8.38216 11.3392 8.38216C9.23987 9.6003 8.59192 10.9869 8.59192 10.9869C9.40833 9.40592 11.8057 8.29145 13.6848 8.2137C15.5638 8.13594 16.7949 8.69318 18.2982 9.89836C19.8014 11.1165 20.7085 13.6046 20.6178 15.5744C20.5401 17.5441 19.5034 19.1381 19.5034 19.1381C20.2161 18.218 20.6438 17.5441 20.9159 16.8573C20.9677 16.65 21.0196 16.4426 21.0455 16.2223C21.6934 12.2828 19.0239 8.56359 15.0714 7.9286Z" fill="url(#paint3_linear)"/>
<path d="M20.7991 15.0044C20.7991 18.8014 17.7148 21.8856 13.9178 21.8856C10.1209 21.8856 7.02368 18.8014 7.02368 15.0044H20.7991Z" fill="url(#paint4_linear)"/>
<g opacity="0.6">
<path opacity="0.6" d="M20.2548 15.0044C20.2548 18.7107 17.3261 21.7431 13.6458 21.8856C13.7365 21.8856 13.8272 21.8856 13.9179 21.8856C17.7149 21.8856 20.7991 18.8014 20.7991 15.0044H20.2548Z" fill="url(#paint5_linear)"/>
</g>
<g opacity="0.7">
<path opacity="0.7" d="M7.9956 15.0044H7.02368C7.02368 18.8014 10.1079 21.8856 13.9049 21.8856C14.0734 21.8856 14.2289 21.8856 14.3844 21.8726C10.8207 21.6135 7.9956 18.6329 7.9956 15.0044Z" fill="url(#paint6_linear)"/>
</g>
<path d="M20.7861 15.0692C20.7861 14.2787 19.4124 13.8251 17.5852 13.6696C16.2634 13.5659 14.9286 13.6955 13.3995 14.162C12.0777 14.5508 10.8855 14.486 10.0172 14.3823C8.08632 14.162 7.02368 14.1361 7.02368 15.0692C7.02368 16.4169 9.77098 18.1016 13.8919 17.5184C15.9783 17.2204 17.0539 16.6113 18.285 16.1966C19.6198 15.756 20.7861 15.769 20.7861 15.0692Z" fill="url(#paint7_linear)"/>
<path d="M16.1728 11.8034C16.8169 11.8034 17.3391 11.2813 17.3391 10.6371C17.3391 9.993 16.8169 9.47083 16.1728 9.47083C15.5286 9.47083 15.0065 9.993 15.0065 10.6371C15.0065 11.2813 15.5286 11.8034 16.1728 11.8034Z" fill="white"/>
<path d="M18.0778 12.6718C18.3497 12.6718 18.5702 12.4513 18.5702 12.1793C18.5702 11.9074 18.3497 11.6869 18.0778 11.6869C17.8058 11.6869 17.5853 11.9074 17.5853 12.1793C17.5853 12.4513 17.8058 12.6718 18.0778 12.6718Z" fill="white"/>
<g opacity="0.6">
<path opacity="0.6" d="M19.8402 9.70415C19.8273 9.70415 19.8143 9.70415 19.8143 9.70415C19.7365 9.69119 19.6847 9.61344 19.6977 9.52273C19.8143 8.92662 20.3067 8.35642 20.3327 8.3305C20.3845 8.26571 20.4882 8.26571 20.54 8.31754C20.6048 8.36938 20.6048 8.47305 20.553 8.52489C20.54 8.53785 20.0864 9.06916 19.9828 9.58752C19.9698 9.66528 19.905 9.70415 19.8402 9.70415Z" fill="url(#paint8_linear)"/>
</g>
<path d="M18.2721 5.2203C18.9978 5.2203 19.892 5.5702 20.7214 6.17927C21.7711 6.94385 22.3542 7.61771 22.5356 8.3175C22.6393 8.71922 22.5486 9.17279 22.2894 9.50972C22.0173 9.85961 21.6156 10.054 21.1361 10.054C20.9676 10.054 20.7862 10.0281 20.5918 9.97624C20.4752 10.2743 20.3844 10.5724 20.3197 10.8575C21.1102 12.0626 21.5767 13.514 21.5767 15.0691C21.5767 19.3067 18.1425 22.7408 13.905 22.7408C9.66739 22.7408 6.24622 19.3067 6.24622 15.0691C6.24622 10.8315 9.68035 7.39741 13.9179 7.39741C14.851 7.39741 15.7451 7.56587 16.5745 7.87689C16.73 7.79914 16.9244 7.69546 17.1447 7.56587C17.067 7.44924 16.9892 7.33261 16.9503 7.21598C16.8078 6.86609 16.8596 6.32181 17.0799 5.90713C17.2613 5.57019 17.5335 5.33693 17.8704 5.25918C17.987 5.23326 18.1296 5.2203 18.2721 5.2203ZM18.2721 5C18.1166 5 17.9611 5.01296 17.8186 5.05184C17.4298 5.14255 17.0929 5.40173 16.8726 5.81642C16.6264 6.2959 16.5616 6.91793 16.73 7.31966C16.7559 7.37149 16.7819 7.43629 16.8207 7.50108C16.73 7.55292 16.6393 7.60475 16.5486 7.64363C15.6933 7.34557 14.8121 7.19006 13.905 7.19006C12.8423 7.19006 11.8056 7.39741 10.8337 7.81209C9.88769 8.21382 9.04536 8.78402 8.31965 9.50972C7.59395 10.2354 7.02376 11.0778 6.62203 12.0238C6.20734 12.9957 6 14.0324 6 15.095C6 16.1577 6.20734 17.1944 6.62203 18.1663C7.02376 19.1123 7.59395 19.9546 8.31965 20.6803C9.04536 21.406 9.88769 21.9762 10.8337 22.378C11.8056 22.7927 12.8423 23 13.905 23C14.9676 23 16.0043 22.7927 16.9762 22.378C17.9222 21.9762 18.7646 21.406 19.4903 20.6803C20.216 19.9546 20.7862 19.1123 21.1879 18.1663C21.6026 17.1944 21.8099 16.1577 21.8099 15.095C21.8099 13.5788 21.3823 12.1145 20.5659 10.8445C20.6048 10.6501 20.6695 10.4557 20.7343 10.2613C20.8639 10.2873 21.0065 10.3002 21.1361 10.3002C21.6803 10.3002 22.1598 10.0799 22.4708 9.66523C22.7689 9.27646 22.8855 8.73218 22.7559 8.27862C22.5486 7.527 21.9525 6.81425 20.851 6.02376C19.9827 5.36285 19.0367 5 18.2721 5Z" fill="white"/>
<path opacity="0.2" d="M13.4391 20.473C13.6395 20.473 13.802 20.3106 13.802 20.1102C13.802 19.9098 13.6395 19.7473 13.4391 19.7473C13.2387 19.7473 13.0763 19.9098 13.0763 20.1102C13.0763 20.3106 13.2387 20.473 13.4391 20.473Z" fill="white"/>
<g opacity="0.4">
<path opacity="0.6" d="M13.2311 20.3435C13.0886 20.201 13.0886 19.9677 13.2311 19.8252C13.2571 19.7993 13.283 19.7863 13.3089 19.7604C13.2571 19.7733 13.2182 19.7993 13.1793 19.8381C13.0368 19.9807 13.0368 20.2139 13.1793 20.3565C13.2959 20.4731 13.4774 20.499 13.6199 20.4213C13.4903 20.4731 13.3348 20.4472 13.2311 20.3435Z" fill="url(#paint9_linear)"/>
</g>
<path opacity="0.3" d="M13.568 20.0066C13.6109 20.0066 13.6457 19.9718 13.6457 19.9288C13.6457 19.8859 13.6109 19.8511 13.568 19.8511C13.525 19.8511 13.4902 19.8859 13.4902 19.9288C13.4902 19.9718 13.525 20.0066 13.568 20.0066Z" fill="white"/>
<path opacity="0.2" d="M15.3311 20.2916C15.5315 20.2916 15.694 20.1292 15.694 19.9288C15.694 19.7284 15.5315 19.5659 15.3311 19.5659C15.1307 19.5659 14.9683 19.7284 14.9683 19.9288C14.9683 20.1292 15.1307 20.2916 15.3311 20.2916Z" fill="white"/>
<g opacity="0.4">
<path opacity="0.6" d="M15.1231 20.162C14.9806 20.0195 14.9806 19.7862 15.1231 19.6437C15.149 19.6177 15.1749 19.6048 15.2009 19.5789C15.149 19.5918 15.1101 19.6177 15.0713 19.6566C14.9287 19.7992 14.9287 20.0324 15.0713 20.175C15.1879 20.2916 15.3693 20.3175 15.5119 20.2398C15.3823 20.2916 15.2268 20.2657 15.1231 20.162Z" fill="url(#paint10_linear)"/>
</g>
<path opacity="0.3" d="M15.4601 19.8251C15.503 19.8251 15.5378 19.7903 15.5378 19.7473C15.5378 19.7044 15.503 19.6696 15.4601 19.6696C15.4171 19.6696 15.3823 19.7044 15.3823 19.7473C15.3823 19.7903 15.4171 19.8251 15.4601 19.8251Z" fill="white"/>
<path opacity="0.2" d="M14.3974 21.1339C14.5477 21.1339 14.6695 21.012 14.6695 20.8617C14.6695 20.7114 14.5477 20.5896 14.3974 20.5896C14.2471 20.5896 14.1252 20.7114 14.1252 20.8617C14.1252 21.012 14.2471 21.1339 14.3974 21.1339Z" fill="white"/>
<g opacity="0.4">
<path opacity="0.6" d="M14.2419 21.0302C14.1382 20.9265 14.1382 20.7451 14.2419 20.6414C14.2548 20.6285 14.2808 20.6155 14.2937 20.6025C14.2548 20.6155 14.2289 20.6414 14.203 20.6673C14.0993 20.771 14.0993 20.9524 14.203 21.0561C14.2937 21.1468 14.4233 21.1598 14.5399 21.095C14.4363 21.1339 14.3196 21.1079 14.2419 21.0302Z" fill="url(#paint11_linear)"/>
</g>
<path opacity="0.3" d="M14.488 20.771C14.5166 20.771 14.5398 20.7478 14.5398 20.7192C14.5398 20.6906 14.5166 20.6674 14.488 20.6674C14.4594 20.6674 14.4362 20.6906 14.4362 20.7192C14.4362 20.7478 14.4594 20.771 14.488 20.771Z" fill="white"/>
<path opacity="0.2" d="M16.0691 20.9395C16.2194 20.9395 16.3413 20.8177 16.3413 20.6674C16.3413 20.5171 16.2194 20.3953 16.0691 20.3953C15.9188 20.3953 15.797 20.5171 15.797 20.6674C15.797 20.8177 15.9188 20.9395 16.0691 20.9395Z" fill="white"/>
<g opacity="0.4">
<path opacity="0.6" d="M15.9136 20.8358C15.81 20.7322 15.81 20.5508 15.9136 20.4471C15.9266 20.4341 15.9525 20.4212 15.9655 20.4082C15.9266 20.4212 15.9007 20.4471 15.8748 20.473C15.7711 20.5767 15.7711 20.7581 15.8748 20.8618C15.9655 20.9525 16.0951 20.9654 16.2117 20.9006C16.108 20.9395 15.9914 20.9136 15.9136 20.8358Z" fill="url(#paint12_linear)"/>
</g>
<path opacity="0.3" d="M16.1599 20.5766C16.1885 20.5766 16.2117 20.5534 16.2117 20.5247C16.2117 20.4961 16.1885 20.4729 16.1599 20.4729C16.1312 20.4729 16.108 20.4961 16.108 20.5247C16.108 20.5534 16.1312 20.5766 16.1599 20.5766Z" fill="white"/>
<path opacity="0.2" d="M11.8963 20.3435C12.2255 20.3435 12.4924 20.0766 12.4924 19.7474C12.4924 19.4181 12.2255 19.1512 11.8963 19.1512C11.5671 19.1512 11.3002 19.4181 11.3002 19.7474C11.3002 20.0766 11.5671 20.3435 11.8963 20.3435Z" fill="white"/>
<g opacity="0.4">
<path opacity="0.6" d="M11.5593 20.1232C11.3261 19.89 11.3261 19.5142 11.5593 19.2809C11.5982 19.242 11.6371 19.2161 11.6889 19.1902C11.6112 19.2161 11.5464 19.2679 11.4816 19.3198C11.2483 19.553 11.2483 19.9288 11.4816 20.1621C11.676 20.3565 11.974 20.3954 12.2073 20.2528C11.987 20.3435 11.7278 20.3047 11.5593 20.1232Z" fill="url(#paint13_linear)"/>
</g>
<path opacity="0.3" d="M12.1037 19.5658C12.1753 19.5658 12.2333 19.5078 12.2333 19.4362C12.2333 19.3647 12.1753 19.3066 12.1037 19.3066C12.0321 19.3066 11.9741 19.3647 11.9741 19.4362C11.9741 19.5078 12.0321 19.5658 12.1037 19.5658Z" fill="white"/>
<path opacity="0.2" d="M17.2225 18.879C17.5517 18.879 17.8186 18.6121 17.8186 18.2829C17.8186 17.9537 17.5517 17.6868 17.2225 17.6868C16.8932 17.6868 16.6263 17.9537 16.6263 18.2829C16.6263 18.6121 16.8932 18.879 17.2225 18.879Z" fill="white"/>
<g opacity="0.4">
<path opacity="0.6" d="M16.8726 18.6588C16.6393 18.4255 16.6393 18.0497 16.8726 17.8164C16.9115 17.7775 16.9503 17.7516 17.0022 17.7257C16.9244 17.7516 16.8596 17.8035 16.7948 17.8553C16.5616 18.0886 16.5616 18.4644 16.7948 18.6976C16.9892 18.892 17.2873 18.9309 17.5205 18.7883C17.3002 18.8791 17.054 18.8402 16.8726 18.6588Z" fill="url(#paint14_linear)"/>
</g>
<path opacity="0.3" d="M17.4299 18.1015C17.5015 18.1015 17.5595 18.0434 17.5595 17.9719C17.5595 17.9003 17.5015 17.8423 17.4299 17.8423C17.3583 17.8423 17.3003 17.9003 17.3003 17.9719C17.3003 18.0434 17.3583 18.1015 17.4299 18.1015Z" fill="white"/>
<defs>
<radialGradient id="paint0_radial" cx="0" cy="0" r="1" gradientUnits="userSpaceOnUse" gradientTransform="translate(21.9364 7.60474) scale(5.79193)">
<stop stop-color="#FFEAFF" stop-opacity="0.6"/>
<stop offset="0.6807" stop-color="#A087C9"/>
<stop offset="1" stop-color="#10002F"/>
</radialGradient>
<radialGradient id="paint1_radial" cx="0" cy="0" r="1" gradientUnits="userSpaceOnUse" gradientTransform="translate(18.7141 10.0749) scale(14.1708)">
<stop stop-color="#FFEAFF" stop-opacity="0.6"/>
<stop offset="0.6807" stop-color="#A087C9"/>
<stop offset="1" stop-color="#10002F"/>
</radialGradient>
<linearGradient id="paint2_linear" x1="12.7559" y1="22.2104" x2="15.0729" y2="7.91583" gradientUnits="userSpaceOnUse">
<stop stop-color="#81FFFF"/>
<stop offset="0.6202" stop-color="white" stop-opacity="0"/>
</linearGradient>
<linearGradient id="paint3_linear" x1="19.0233" y1="10.1493" x2="13.0331" y2="15.6455" gradientUnits="userSpaceOnUse">
<stop offset="0.2888" stop-color="white"/>
<stop offset="0.7796" stop-color="white" stop-opacity="0"/>
</linearGradient>
<linearGradient id="paint4_linear" x1="7.02951" y1="18.441" x2="20.7957" y2="18.441" gradientUnits="userSpaceOnUse">
<stop stop-color="#0002E9"/>
<stop offset="0.9952" stop-color="#FF00C7"/>
</linearGradient>
<linearGradient id="paint5_linear" x1="21.4474" y1="15.6082" x2="13.9545" y2="22.6894" gradientUnits="userSpaceOnUse">
<stop offset="0.2888" stop-color="white"/>
<stop offset="0.7796" stop-color="white" stop-opacity="0"/>
</linearGradient>
<linearGradient id="paint6_linear" x1="7.02951" y1="18.441" x2="14.3944" y2="18.441" gradientUnits="userSpaceOnUse">
<stop stop-color="#000292"/>
<stop offset="0.9952" stop-color="#7D00C7"/>
</linearGradient>
<linearGradient id="paint7_linear" x1="7.03875" y1="15.6408" x2="20.7865" y2="15.6408" gradientUnits="userSpaceOnUse">
<stop stop-color="#000292"/>
<stop offset="0.9952" stop-color="#BE00C7"/>
</linearGradient>
<linearGradient id="paint8_linear" x1="20.561" y1="8.26739" x2="19.573" y2="9.87301" gradientUnits="userSpaceOnUse">
<stop offset="0.2888" stop-color="white"/>
<stop offset="0.7796" stop-color="white" stop-opacity="0"/>
</linearGradient>
<linearGradient id="paint9_linear" x1="13.072" y1="20.1214" x2="13.6203" y2="20.1214" gradientUnits="userSpaceOnUse">
<stop offset="0.2888" stop-color="white"/>
<stop offset="0.7796" stop-color="white" stop-opacity="0"/>
</linearGradient>
<linearGradient id="paint10_linear" x1="14.9627" y1="19.9374" x2="15.511" y2="19.9374" gradientUnits="userSpaceOnUse">
<stop offset="0.2888" stop-color="white"/>
<stop offset="0.7796" stop-color="white" stop-opacity="0"/>
</linearGradient>
<linearGradient id="paint11_linear" x1="14.1235" y1="20.8648" x2="14.5352" y2="20.8648" gradientUnits="userSpaceOnUse">
<stop offset="0.2888" stop-color="white"/>
<stop offset="0.7796" stop-color="white" stop-opacity="0"/>
</linearGradient>
<linearGradient id="paint12_linear" x1="15.7897" y1="20.67" x2="16.2013" y2="20.67" gradientUnits="userSpaceOnUse">
<stop offset="0.2888" stop-color="white"/>
<stop offset="0.7796" stop-color="white" stop-opacity="0"/>
</linearGradient>
<linearGradient id="paint13_linear" x1="11.3007" y1="19.7626" x2="12.1961" y2="19.7626" gradientUnits="userSpaceOnUse">
<stop offset="0.2888" stop-color="white"/>
<stop offset="0.7796" stop-color="white" stop-opacity="0"/>
</linearGradient>
<linearGradient id="paint14_linear" x1="16.6189" y1="18.2977" x2="17.5143" y2="18.2977" gradientUnits="userSpaceOnUse">
<stop offset="0.2888" stop-color="white"/>
<stop offset="0.7796" stop-color="white" stop-opacity="0"/>
</linearGradient>
</defs>
</svg>
