<svg width="48" height="48" viewBox="0 0 48 48" fill="none" xmlns="http://www.w3.org/2000/svg">
<path d="M24 0C37.2549 0 48 10.7451 48 24C48 37.2549 37.2549 48 24 48C10.7451 48 0 37.2549 0 24C0 10.7451 10.7451 0 24 0Z" fill="black"/>
<path d="M37.9601 31.2786L33.3022 36.273C33.2014 36.3815 33.0795 36.468 32.9438 36.5273C32.8081 36.5865 32.6617 36.6172 32.5136 36.6173H10.4333C10.328 36.6173 10.225 36.5865 10.1369 36.5288C10.0488 36.4711 9.97942 36.3889 9.93729 36.2924C9.89517 36.1959 9.88211 36.0892 9.8997 35.9854C9.9173 35.8815 9.96479 35.7851 10.0364 35.7078L14.689 30.7135C14.7898 30.605 14.9117 30.5184 15.0474 30.4592C15.1831 30.3999 15.3295 30.3693 15.4776 30.3691H37.5579C37.6641 30.3669 37.7687 30.3962 37.8584 30.4533C37.948 30.5104 38.019 30.5927 38.0618 30.6899C38.1049 30.7872 38.1181 30.8949 38.0999 30.9997C38.0818 31.1044 38.0332 31.2015 37.9601 31.2786ZM33.3022 21.2189C33.2011 21.1109 33.079 21.0247 32.9434 20.9655C32.8078 20.9063 32.6616 20.8754 32.5136 20.8746H10.4333C10.328 20.8747 10.225 20.9054 10.1369 20.9631C10.0488 21.0208 9.97942 21.103 9.93729 21.1995C9.89517 21.296 9.88211 21.4027 9.8997 21.5065C9.9173 21.6104 9.96479 21.7068 10.0364 21.7841L14.689 26.7811C14.7901 26.8891 14.9122 26.9753 15.0478 27.0345C15.1834 27.0937 15.3296 27.1246 15.4776 27.1254H37.5579C37.6631 27.1249 37.7656 27.0937 37.8534 27.0358C37.9412 26.9779 38.01 26.8957 38.0518 26.7993C38.0936 26.7029 38.1065 26.5964 38.0886 26.4928C38.071 26.3892 38.0237 26.293 37.9522 26.2159L33.3022 21.2189ZM10.4333 17.6309H32.5136C32.6617 17.6307 32.8081 17.6001 32.9438 17.5408C33.0795 17.4816 33.2014 17.395 33.3022 17.2865L37.9601 12.2922C38.0332 12.215 38.0818 12.118 38.0999 12.0132C38.1181 11.9085 38.1049 11.8007 38.0618 11.7035C38.019 11.6063 37.948 11.5239 37.8584 11.4669C37.7687 11.4098 37.6641 11.3805 37.5579 11.3827H15.4776C15.3295 11.3828 15.1831 11.4135 15.0474 11.4727C14.9117 11.532 14.7898 11.6185 14.689 11.727L10.0364 16.7214C9.96479 16.7986 9.9173 16.8951 9.8997 16.9989C9.88211 17.1028 9.89517 17.2095 9.93729 17.306C9.97942 17.4025 10.0488 17.4846 10.1369 17.5423C10.225 17.6001 10.328 17.6308 10.4333 17.6309Z" fill="url(#paint0_linear_1801_2538)"/>
<defs>
<linearGradient id="paint0_linear_1801_2538" x1="12.2733" y1="37.2193" x2="35.4261" y2="11.1172" gradientUnits="userSpaceOnUse">
<stop offset="0.08" stop-color="#9945FF"/>
<stop offset="0.3" stop-color="#8752F3"/>
<stop offset="0.5" stop-color="#5497D5"/>
<stop offset="0.6" stop-color="#43B4CA"/>
<stop offset="0.72" stop-color="#28E0B9"/>
<stop offset="0.97" stop-color="#19FB9B"/>
</linearGradient>
</defs>
</svg>
