<svg xmlns="http://www.w3.org/2000/svg" width="96.419" height="96.402" viewBox="0 0 96.419 96.402"><g transform="translate(-16 -12.02)"><g transform="translate(16 12.02)"><path d="M55.424,49.781,33.959,71.246a2.859,2.859,0,0,1-4.048,0L25.862,67.2a2.859,2.859,0,0,1,0-4.048L47.327,41.684a2.9,2.9,0,0,1,2.033-.844h4.048a2.864,2.864,0,0,1,2.86,2.86v4.048A2.973,2.973,0,0,1,55.424,49.781Z" transform="translate(-9.479 8.808)" fill="#fcec36"/><path d="M75.226,29.969,53.761,51.434a2.9,2.9,0,0,1-2.033.844H47.68a2.864,2.864,0,0,1-2.86-2.86V45.37a2.928,2.928,0,0,1,.844-2.033L67.129,21.872a2.859,2.859,0,0,1,4.048,0l4.048,4.048A2.859,2.859,0,0,1,75.226,29.969Z" transform="translate(4.828 -5.507)" fill="#fcec36"/><path d="M47.317,51.434,25.852,29.969a2.859,2.859,0,0,1,0-4.048L29.9,21.872a2.859,2.859,0,0,1,4.048,0L55.414,43.337a2.9,2.9,0,0,1,.844,2.033v4.048a2.864,2.864,0,0,1-2.86,2.86H49.35A2.867,2.867,0,0,1,47.317,51.434Z" transform="translate(-9.487 -5.507)" fill="#fcec36"/><path d="M67.119,71.246,45.654,49.781a2.9,2.9,0,0,1-.844-2.033V43.7a2.864,2.864,0,0,1,2.86-2.86h4.048a2.928,2.928,0,0,1,2.033.844L75.216,63.149a2.859,2.859,0,0,1,0,4.048l-4.048,4.048A2.859,2.859,0,0,1,67.119,71.246Z" transform="translate(4.821 8.808)" fill="#fcec36"/><g transform="translate(0 10.461)"><path d="M28.317,28.028l1-1a2.859,2.859,0,0,0,0-4.048l-1.843-1.843-2.205-2.205a2.859,2.859,0,0,0-4.048,0l-4.358,4.358A2.774,2.774,0,0,0,16,25.306V51.526a2.864,2.864,0,0,0,2.86,2.86H24.6a2.864,2.864,0,0,0,2.86-2.86V30.061A2.883,2.883,0,0,1,28.317,28.028Z" transform="translate(-16 -18.092)" fill="#fcec36"/><g transform="translate(0 39.187)"><path d="M28.317,67.2l1,1a2.859,2.859,0,0,1,0,4.048l-1.843,1.843-2.205,2.205a2.859,2.859,0,0,1-4.048,0l-4.358-4.358A2.774,2.774,0,0,1,16,69.919V43.7a2.864,2.864,0,0,1,2.86-2.86H24.6a2.864,2.864,0,0,1,2.86,2.86V65.182A2.874,2.874,0,0,0,28.317,67.2Z" transform="translate(-16 -40.84)" fill="#fcec36"/></g></g><g transform="translate(82.28 10.461)"><path d="M65.6,28.028l-1-1a2.859,2.859,0,0,1,0-4.048l1.843-1.843,2.205-2.205a2.859,2.859,0,0,1,4.048,0l4.358,4.358a2.9,2.9,0,0,1,.844,2.033v26.2a2.864,2.864,0,0,1-2.86,2.86H69.305a2.864,2.864,0,0,1-2.86-2.86V30.061A2.941,2.941,0,0,0,65.6,28.028Z" transform="translate(-63.763 -18.092)" fill="#fcec36"/><g transform="translate(0 39.187)"><path d="M65.6,67.2l-1,1a2.859,2.859,0,0,0,0,4.048l1.843,1.843,2.205,2.205a2.859,2.859,0,0,0,4.048,0l4.358-4.358A2.9,2.9,0,0,0,77.9,69.9V43.7a2.864,2.864,0,0,0-2.86-2.86H69.305a2.864,2.864,0,0,0-2.86,2.86V65.182A2.932,2.932,0,0,1,65.6,67.2Z" transform="translate(-63.763 -40.84)" fill="#fcec36"/></g></g><g transform="translate(10.461 82.263)"><path d="M32.008,61.611l-1-1a2.859,2.859,0,0,0-4.048,0l-1.843,1.843-2.205,2.205a2.859,2.859,0,0,0,0,4.048l4.358,4.358a2.9,2.9,0,0,0,2.033.844H55.54a2.864,2.864,0,0,0,2.86-2.86V65.315a2.864,2.864,0,0,0-2.86-2.86h-21.5A2.928,2.928,0,0,1,32.008,61.611Z" transform="translate(-22.073 -59.772)" fill="#fcec36"/><g transform="translate(39.17)"><path d="M71.2,61.611l1-1a2.859,2.859,0,0,1,4.048,0l1.843,1.843L80.3,64.661a2.859,2.859,0,0,1,0,4.048l-4.358,4.358a2.9,2.9,0,0,1-2.033.844H47.67a2.864,2.864,0,0,1-2.86-2.86V65.315a2.864,2.864,0,0,1,2.86-2.86H69.152A2.938,2.938,0,0,0,71.2,61.611Z" transform="translate(-44.81 -59.772)" fill="#fcec36"/></g></g><g transform="translate(10.461)"><path d="M32.008,24.32l-1,1a2.859,2.859,0,0,1-4.048,0l-1.843-1.843-2.205-2.205a2.859,2.859,0,0,1,0-4.048l4.358-4.358A2.9,2.9,0,0,1,29.3,12.02H55.54a2.864,2.864,0,0,1,2.86,2.86v5.737a2.864,2.864,0,0,1-2.86,2.86h-21.5A2.928,2.928,0,0,0,32.008,24.32Z" transform="translate(-22.073 -12.02)" fill="#fcec36"/><g transform="translate(39.17)"><path d="M71.2,24.32l1,1a2.859,2.859,0,0,0,4.048,0l1.843-1.843L80.3,21.271a2.859,2.859,0,0,0,0-4.048l-4.358-4.358a2.9,2.9,0,0,0-2.033-.844H47.67a2.864,2.864,0,0,0-2.86,2.86v5.737a2.864,2.864,0,0,0,2.86,2.86H69.152A2.938,2.938,0,0,1,71.2,24.32Z" transform="translate(-44.81 -12.02)" fill="#fcec36"/></g></g></g></g></svg>