<svg xmlns="http://www.w3.org/2000/svg" viewBox="0 0 379.96 357.33"><defs><style>.cls-1{fill:#0e3ca5;}.cls-2{fill:#5493f7;}</style></defs><title>Symbol_terra</title><g id="Layer_2" data-name="Layer 2"><g id="Layer_1-2" data-name="Layer 1"><g id="Symbol_terra"><path class="cls-1" d="M163.4,290.39c10.41,38.51,47.76,67.9,66.62,66.69.66,0,71.55-13.26,110.35-78.09,30.2-50.46,19.91-99.16-21.16-100.23C304.44,179.84,143.56,217,163.4,290.39"/><path class="cls-1" d="M315.39,43l0,0,.06,0a180.27,180.27,0,0,0-190-27.41A107.12,107.12,0,0,0,114,21.12c-2.53,1.35-5.06,2.69-7.52,4.15l.6.19a82,82,0,0,0-19,18c-51.74,68.36,121.66,118,214.37,118.2C345.09,192.28,357.06,75.45,315.39,43Z"/><path class="cls-2" d="M135.88,44.4c-23.81,35.8-103.17,61-116.22,57.11l-.08-.17c.53-1.08,1.07-2.15,1.63-3.22a190.89,190.89,0,0,1,56.58-66q7.32-5.37,15.16-10c11.11-6.43,22.49-6.85,26.23-7,35.34.68,16.89,29.05,16.7,29.33"/><path class="cls-2" d="M116.34,297.43c1.71,11.25,0,55.69-2.34,59.44-2,.12-6.11.37-18.07-6.34A190.21,190.21,0,0,1,9.69,245.47a186.84,186.84,0,0,1-7.2-29.23,191.92,191.92,0,0,1,0-61.63,186.84,186.84,0,0,1,7.2-29.23c.63-1.91,1.3-3.81,2-5.69h0c13.7,18.22,29.55,34.69,43,53.09C67.54,190.29,85.19,218.85,88.78,225c22.3,37.88,25.86,61.25,27.56,72.48"/><path class="cls-2" d="M380,185.42a189.37,189.37,0,0,1-13.23,69.78C344.36,279.25,193.49,220.05,192,219.41c-20.64-9-83.45-36.56-89.11-79.78-8.15-62.18,118-105.51,173.43-107.15,6.65.08,26.87.31,38.67,9.89a189.54,189.54,0,0,1,65,143"/><path class="cls-2" d="M277.83,353.93C261.38,361.6,243.28,356,248,340c9-30.76,87.9-62.29,105.31-64,2.15-.21,3.06,1.25,2.11,2.92a192,192,0,0,1-77.57,75"/></g></g></g></svg>